<?xml version="1.0" standalone="no"?>
<!DOCTYPE svg PUBLIC "-//W3C//DTD SVG 20010904//EN"
 "http://www.w3.org/TR/2001/REC-SVG-20010904/DTD/svg10.dtd">
<svg version="1.0" xmlns="http://www.w3.org/2000/svg"
 width="180.000000pt" height="180.000000pt" viewBox="0 0 180.000000 180.000000"
 preserveAspectRatio="xMidYMid meet">
<metadata>
Created by potrace 1.14, written by Peter Selinger 2001-2017
</metadata>
<g transform="translate(0.000000,180.000000) scale(0.100000,-0.100000)"
fill="#000000" stroke="none">
<path d="M185 1780 c-64 -25 -121 -81 -154 -150 l-26 -55 0 -670 c-1 -763 -5
-723 86 -815 87 -88 64 -86 819 -83 360 1 662 3 670 5 73 17 150 80 192 161
l23 42 0 685 0 685 -25 50 c-31 63 -78 111 -138 138 -47 22 -52 22 -722 24
-645 2 -677 1 -725 -17z"/>
</g>
</svg>
