<svg width="198" height="29" viewBox="0 0 198 29" fill="none" xmlns="http://www.w3.org/2000/svg">
<path d="M0.34836 28V3.5H5.03836L15.4684 20.79H12.9834L23.2384 3.5H27.8934L27.9634 28H22.6434L22.6084 11.655H23.5884L15.3984 25.41H12.8434L4.47836 11.655H5.66836V28H0.34836ZM42.3511 28.28C40.3444 28.28 38.5594 27.86 36.9961 27.02C35.4561 26.18 34.2311 25.0367 33.3211 23.59C32.4344 22.12 31.9911 20.4517 31.9911 18.585C31.9911 16.695 32.4344 15.0267 33.3211 13.58C34.2311 12.11 35.4561 10.9667 36.9961 10.15C38.5594 9.31 40.3444 8.89 42.3511 8.89C44.3344 8.89 46.1078 9.31 47.6711 10.15C49.2344 10.9667 50.4594 12.0983 51.3461 13.545C52.2328 14.9917 52.6761 16.6717 52.6761 18.585C52.6761 20.4517 52.2328 22.12 51.3461 23.59C50.4594 25.0367 49.2344 26.18 47.6711 27.02C46.1078 27.86 44.3344 28.28 42.3511 28.28ZM42.3511 23.8C43.2611 23.8 44.0778 23.59 44.8011 23.17C45.5244 22.75 46.0961 22.155 46.5161 21.385C46.9361 20.5917 47.1461 19.6583 47.1461 18.585C47.1461 17.4883 46.9361 16.555 46.5161 15.785C46.0961 15.015 45.5244 14.42 44.8011 14C44.0778 13.58 43.2611 13.37 42.3511 13.37C41.4411 13.37 40.6244 13.58 39.9011 14C39.1778 14.42 38.5944 15.015 38.1511 15.785C37.7311 16.555 37.5211 17.4883 37.5211 18.585C37.5211 19.6583 37.7311 20.5917 38.1511 21.385C38.5944 22.155 39.1778 22.75 39.9011 23.17C40.6244 23.59 41.4411 23.8 42.3511 23.8ZM60.923 28L53.013 9.17H58.648L65.228 25.375H62.428L69.253 9.17H74.503L66.558 28H60.923ZM76.7309 28V9.17H82.1909V28H76.7309ZM79.4609 6.545C78.4576 6.545 77.6409 6.25333 77.0109 5.67C76.3809 5.08667 76.0659 4.36333 76.0659 3.5C76.0659 2.63666 76.3809 1.91333 77.0109 1.33C77.6409 0.746665 78.4576 0.454998 79.4609 0.454998C80.4643 0.454998 81.2809 0.734998 81.9109 1.295C82.5409 1.83167 82.8559 2.53167 82.8559 3.395C82.8559 4.305 82.5409 5.06333 81.9109 5.67C81.3043 6.25333 80.4876 6.545 79.4609 6.545ZM96.6033 28.28C94.4566 28.28 92.5666 27.86 90.9333 27.02C89.3233 26.18 88.0749 25.0367 87.1883 23.59C86.3016 22.12 85.8583 20.4517 85.8583 18.585C85.8583 16.695 86.2899 15.0267 87.1533 13.58C88.0399 12.11 89.2416 10.9667 90.7583 10.15C92.2749 9.31 93.9899 8.89 95.9033 8.89C97.7466 8.89 99.4033 9.28667 100.873 10.08C102.367 10.85 103.545 11.97 104.408 13.44C105.272 14.8867 105.703 16.625 105.703 18.655C105.703 18.865 105.692 19.11 105.668 19.39C105.645 19.6467 105.622 19.8917 105.598 20.125H90.3033V16.94H102.728L100.628 17.885C100.628 16.905 100.43 16.0533 100.033 15.33C99.6366 14.6067 99.0883 14.0467 98.3883 13.65C97.6883 13.23 96.8716 13.02 95.9383 13.02C95.0049 13.02 94.1766 13.23 93.4533 13.65C92.7533 14.0467 92.2049 14.6183 91.8083 15.365C91.4116 16.0883 91.2133 16.9517 91.2133 17.955V18.795C91.2133 19.8217 91.4349 20.7317 91.8783 21.525C92.3449 22.295 92.9866 22.89 93.8033 23.31C94.6433 23.7067 95.6233 23.905 96.7433 23.905C97.7466 23.905 98.6216 23.7533 99.3683 23.45C100.138 23.1467 100.838 22.6917 101.468 22.085L104.373 25.235C103.51 26.215 102.425 26.9733 101.118 27.51C99.8116 28.0233 98.3066 28.28 96.6033 28.28ZM109.723 28V3.5H114.413L124.843 20.79H122.358L132.613 3.5H137.268L137.338 28H132.018L131.983 11.655H132.963L124.773 25.41H122.218L113.853 11.655H115.043V28H109.723ZM154.316 28V24.325L153.966 23.52V16.94C153.966 15.7733 153.604 14.8633 152.881 14.21C152.181 13.5567 151.096 13.23 149.626 13.23C148.623 13.23 147.631 13.3933 146.651 13.72C145.694 14.0233 144.878 14.4433 144.201 14.98L142.241 11.165C143.268 10.4417 144.504 9.88167 145.951 9.485C147.398 9.08833 148.868 8.89 150.361 8.89C153.231 8.89 155.459 9.56667 157.046 10.92C158.633 12.2733 159.426 14.385 159.426 17.255V28H154.316ZM148.576 28.28C147.106 28.28 145.846 28.035 144.796 27.545C143.746 27.0317 142.941 26.3433 142.381 25.48C141.821 24.6167 141.541 23.6483 141.541 22.575C141.541 21.455 141.809 20.475 142.346 19.635C142.906 18.795 143.781 18.1417 144.971 17.675C146.161 17.185 147.713 16.94 149.626 16.94H154.631V20.125H150.221C148.938 20.125 148.051 20.335 147.561 20.755C147.094 21.175 146.861 21.7 146.861 22.33C146.861 23.03 147.129 23.59 147.666 24.01C148.226 24.4067 148.984 24.605 149.941 24.605C150.851 24.605 151.668 24.395 152.391 23.975C153.114 23.5317 153.639 22.89 153.966 22.05L154.806 24.57C154.409 25.7833 153.686 26.705 152.636 27.335C151.586 27.965 150.233 28.28 148.576 28.28ZM172.068 28.28C169.851 28.28 168.124 27.72 166.888 26.6C165.651 25.4567 165.033 23.765 165.033 21.525V5.005H170.493V21.455C170.493 22.2483 170.703 22.8667 171.123 23.31C171.543 23.73 172.114 23.94 172.838 23.94C173.701 23.94 174.436 23.7067 175.043 23.24L176.513 27.09C175.953 27.4867 175.276 27.79 174.483 28C173.713 28.1867 172.908 28.28 172.068 28.28ZM162.128 13.79V9.59H175.183V13.79H162.128ZM188.342 28.28C186.195 28.28 184.305 27.86 182.672 27.02C181.062 26.18 179.813 25.0367 178.927 23.59C178.04 22.12 177.597 20.4517 177.597 18.585C177.597 16.695 178.028 15.0267 178.892 13.58C179.778 12.11 180.98 10.9667 182.497 10.15C184.013 9.31 185.728 8.89 187.642 8.89C189.485 8.89 191.142 9.28667 192.612 10.08C194.105 10.85 195.283 11.97 196.147 13.44C197.01 14.8867 197.442 16.625 197.442 18.655C197.442 18.865 197.43 19.11 197.407 19.39C197.383 19.6467 197.36 19.8917 197.337 20.125H182.042V16.94H194.467L192.367 17.885C192.367 16.905 192.168 16.0533 191.772 15.33C191.375 14.6067 190.827 14.0467 190.127 13.65C189.427 13.23 188.61 13.02 187.677 13.02C186.743 13.02 185.915 13.23 185.192 13.65C184.492 14.0467 183.943 14.6183 183.547 15.365C183.15 16.0883 182.952 16.9517 182.952 17.955V18.795C182.952 19.8217 183.173 20.7317 183.617 21.525C184.083 22.295 184.725 22.89 185.542 23.31C186.382 23.7067 187.362 23.905 188.482 23.905C189.485 23.905 190.36 23.7533 191.107 23.45C191.877 23.1467 192.577 22.6917 193.207 22.085L196.112 25.235C195.248 26.215 194.163 26.9733 192.857 27.51C191.55 28.0233 190.045 28.28 188.342 28.28Z" fill="white"/>
</svg>
